{
    "asset" : {
        "generator" : "Khronos glTF Blender I/O v1.0.5",
        "version" : "2.0"
    },
    "scene" : 0,
    "scenes" : [
        {
            "name" : "Scene",
            "nodes" : [
                0
            ]
        }
    ],
    "nodes" : [
        {
            "mesh" : 0,
            "name" : "Cube"
        }
    ],
    "materials" : [
        {
            "doubleSided" : true,
            "name" : "FighterBody",
            "pbrMetallicRoughness" : {
                "baseColorFactor" : [
                    0,
                    0.0010386439971625805,
                    0.12371020019054413,
                    1
                ],
                "metallicFactor" : 0,
                "roughnessFactor" : 0.8583333492279053
            }
        },
        {
            "doubleSided" : true,
            "name" : "FighterWindow",
            "pbrMetallicRoughness" : {
                "baseColorFactor" : [
                    0.00246992614120245,
                    0.0022449721582233906,
                    0.003095456399023533,
                    1
                ],
                "metallicFactor" : 0,
                "roughnessFactor" : 0.125
            }
        },
        {
            "doubleSided" : true,
            "name" : "FighterGuns",
            "pbrMetallicRoughness" : {
                "baseColorFactor" : [
                    0.9510233402252197,
                    1,
                    0.08353512734174728,
                    1
                ],
                "metallicFactor" : 0,
                "roughnessFactor" : 0.5
            }
        },
        {
            "doubleSided" : true,
            "name" : "FighterStripe",
            "pbrMetallicRoughness" : {
                "baseColorFactor" : [
                    0.30826273560523987,
                    0.31382811069488525,
                    0.3588407337665558,
                    1
                ],
                "metallicFactor" : 0,
                "roughnessFactor" : 0.675000011920929
            }
        },
        {
            "doubleSided" : true,
            "name" : "FighterEngines",
            "pbrMetallicRoughness" : {
                "baseColorFactor" : [
                    0,
                    1,
                    0.9517059922218323,
                    1
                ],
                "metallicFactor" : 0,
                "roughnessFactor" : 1
            }
        }
    ],
    "meshes" : [
        {
            "name" : "Cube",
            "primitives" : [
                {
                    "attributes" : {
                        "POSITION" : 0,
                        "NORMAL" : 1,
                        "TEXCOORD_0" : 2
                    },
                    "indices" : 3,
                    "material" : 0
                },
                {
                    "attributes" : {
                        "POSITION" : 4,
                        "NORMAL" : 5,
                        "TEXCOORD_0" : 6
                    },
                    "indices" : 7,
                    "material" : 1
                },
                {
                    "attributes" : {
                        "POSITION" : 8,
                        "NORMAL" : 9,
                        "TEXCOORD_0" : 10
                    },
                    "indices" : 11,
                    "material" : 2
                },
                {
                    "attributes" : {
                        "POSITION" : 12,
                        "NORMAL" : 13,
                        "TEXCOORD_0" : 14
                    },
                    "indices" : 15,
                    "material" : 3
                },
                {
                    "attributes" : {
                        "POSITION" : 16,
                        "NORMAL" : 17,
                        "TEXCOORD_0" : 18
                    },
                    "indices" : 19,
                    "material" : 4
                }
            ]
        }
    ],
    "accessors" : [
        {
            "bufferView" : 0,
            "componentType" : 5126,
            "count" : 486,
            "max" : [
                6.841334819793701,
                1.0202534198760986,
                1
            ],
            "min" : [
                -6.841334819793701,
                -0.930869996547699,
                -4.446194171905518
            ],
            "type" : "VEC3"
        },
        {
            "bufferView" : 1,
            "componentType" : 5126,
            "count" : 486,
            "type" : "VEC3"
        },
        {
            "bufferView" : 2,
            "componentType" : 5126,
            "count" : 486,
            "type" : "VEC2"
        },
        {
            "bufferView" : 3,
            "componentType" : 5123,
            "count" : 792,
            "type" : "SCALAR"
        },
        {
            "bufferView" : 4,
            "componentType" : 5126,
            "count" : 30,
            "max" : [
                1.035501480102539,
                1.0202534198760986,
                1
            ],
            "min" : [
                -1.035501480102539,
                0.22952598333358765,
                -2.2376255989074707
            ],
            "type" : "VEC3"
        },
        {
            "bufferView" : 5,
            "componentType" : 5126,
            "count" : 30,
            "type" : "VEC3"
        },
        {
            "bufferView" : 6,
            "componentType" : 5126,
            "count" : 30,
            "type" : "VEC2"
        },
        {
            "bufferView" : 7,
            "componentType" : 5123,
            "count" : 96,
            "type" : "SCALAR"
        },
        {
            "bufferView" : 8,
            "componentType" : 5126,
            "count" : 126,
            "max" : [
                0.37333881855010986,
                0.11476299166679382,
                2.7988228797912598
            ],
            "min" : [
                -0.37333881855010986,
                0,
                1
            ],
            "type" : "VEC3"
        },
        {
            "bufferView" : 9,
            "componentType" : 5126,
            "count" : 126,
            "type" : "VEC3"
        },
        {
            "bufferView" : 10,
            "componentType" : 5126,
            "count" : 126,
            "type" : "VEC2"
        },
        {
            "bufferView" : 11,
            "componentType" : 5123,
            "count" : 216,
            "type" : "SCALAR"
        },
        {
            "bufferView" : 12,
            "componentType" : 5126,
            "count" : 96,
            "max" : [
                6.841334819793701,
                0.7146686911582947,
                -0.6188126802444458
            ],
            "min" : [
                -6.841334819793701,
                -0.7431753277778625,
                -2.2376255989074707
            ],
            "type" : "VEC3"
        },
        {
            "bufferView" : 13,
            "componentType" : 5126,
            "count" : 96,
            "type" : "VEC3"
        },
        {
            "bufferView" : 14,
            "componentType" : 5126,
            "count" : 96,
            "type" : "VEC2"
        },
        {
            "bufferView" : 15,
            "componentType" : 5123,
            "count" : 144,
            "type" : "SCALAR"
        },
        {
            "bufferView" : 16,
            "componentType" : 5126,
            "count" : 32,
            "max" : [
                1.6340235471725464,
                0.6116410493850708,
                -3.4380381107330322
            ],
            "min" : [
                -1.6340235471725464,
                -0.6174830794334412,
                -3.4380381107330322
            ],
            "type" : "VEC3"
        },
        {
            "bufferView" : 17,
            "componentType" : 5126,
            "count" : 32,
            "type" : "VEC3"
        },
        {
            "bufferView" : 18,
            "componentType" : 5126,
            "count" : 32,
            "type" : "VEC2"
        },
        {
            "bufferView" : 19,
            "componentType" : 5123,
            "count" : 48,
            "type" : "SCALAR"
        }
    ],
    "bufferViews" : [
        {
            "buffer" : 0,
            "byteLength" : 5832,
            "byteOffset" : 0
        },
        {
            "buffer" : 0,
            "byteLength" : 5832,
            "byteOffset" : 5832
        },
        {
            "buffer" : 0,
            "byteLength" : 3888,
            "byteOffset" : 11664
        },
        {
            "buffer" : 0,
            "byteLength" : 1584,
            "byteOffset" : 15552
        },
        {
            "buffer" : 0,
            "byteLength" : 360,
            "byteOffset" : 17136
        },
        {
            "buffer" : 0,
            "byteLength" : 360,
            "byteOffset" : 17496
        },
        {
            "buffer" : 0,
            "byteLength" : 240,
            "byteOffset" : 17856
        },
        {
            "buffer" : 0,
            "byteLength" : 192,
            "byteOffset" : 18096
        },
        {
            "buffer" : 0,
            "byteLength" : 1512,
            "byteOffset" : 18288
        },
        {
            "buffer" : 0,
            "byteLength" : 1512,
            "byteOffset" : 19800
        },
        {
            "buffer" : 0,
            "byteLength" : 1008,
            "byteOffset" : 21312
        },
        {
            "buffer" : 0,
            "byteLength" : 432,
            "byteOffset" : 22320
        },
        {
            "buffer" : 0,
            "byteLength" : 1152,
            "byteOffset" : 22752
        },
        {
            "buffer" : 0,
            "byteLength" : 1152,
            "byteOffset" : 23904
        },
        {
            "buffer" : 0,
            "byteLength" : 768,
            "byteOffset" : 25056
        },
        {
            "buffer" : 0,
            "byteLength" : 288,
            "byteOffset" : 25824
        },
        {
            "buffer" : 0,
            "byteLength" : 384,
            "byteOffset" : 26112
        },
        {
            "buffer" : 0,
            "byteLength" : 384,
            "byteOffset" : 26496
        },
        {
            "buffer" : 0,
            "byteLength" : 256,
            "byteOffset" : 26880
        },
        {
            "buffer" : 0,
            "byteLength" : 96,
            "byteOffset" : 27136
        }
    ],
    "buffers" : [
        {
            "byteLength" : 27232,
            "uri" : "data:application/octet-stream;base64,"
        }
    ]
}
